<svg width="16" height="16" viewBox="0 0 16 16" fill="none" xmlns="http://www.w3.org/2000/svg">
<path fill-rule="evenodd" clip-rule="evenodd" d="M11.02 3.77L11.03 3.76L12.02 4.75V2.5L11.52 2H2.52001L2.01001 2.5V2.99301L2 3.00003V13.29L2.36 13.75L7.36 15.47L8 15V14H11.52L12.02 13.5V11.25L11.02 12.25V13H8V4.71003L7.67 4.25003L4.03619 3H7.01001H11.02V3.77ZM7 14.28L3 12.94V3.72003L7 5.06003V14.28ZM10.09 7.53005H15.06V8.53005H10.13L11.72 10.1301L11.01 10.8301L8.53998 8.37005V7.66005L11.03 5.18005L11.73 5.88005L10.09 7.53005Z" fill="#C5C5C5"/>
</svg>
