<?xml version="1.0" encoding="UTF-8"?>
<svg width="15px" height="16px" viewBox="0 0 15 16" version="1.1" xmlns="http://www.w3.org/2000/svg" xmlns:xlink="http://www.w3.org/1999/xlink">
    <!-- Generator: Sketch 57 (83077) - https://sketch.com -->
    <title>Combined Shape</title>
    <desc>Created with Sketch.</desc>
    <g id="Page-1" stroke="none" stroke-width="1" fill="none" fill-rule="evenodd">
        <g id="Artboard" transform="translate(-439.000000, -612.000000)" fill="#303133" fill-rule="nonzero">
            <path d="M448.617144,612.16769 C448.808341,612.363282 448.826418,612.663731 448.673533,612.879152 L448.608191,612.955578 L446.15,615.357 L449.894886,619.007259 C450.093972,619.194817 450.124399,619.494266 449.98051,619.715797 L449.918369,619.794848 C449.707367,620.01882 449.354751,620.029333 449.13078,619.818331 L449.13078,619.818331 L445.354,616.136 L440.170212,621.203943 C440.111737,621.261104 440.099007,621.347469 440.132652,621.417331 L440.166592,621.46592 L445.358074,626.829135 C445.415144,626.888093 445.501806,626.90111 445.571922,626.867432 L445.620685,626.833408 L445.623532,626.830592 L449.13805,623.278672 C449.354479,623.05994 449.707246,623.058073 449.925978,623.274502 C450.120407,623.466883 450.143485,623.766988 449.994209,623.984926 L449.930149,624.06243 L446.415631,627.61435 L446.395701,627.634062 C445.914207,628.100138 445.16516,628.119545 444.661422,627.700626 L444.55742,627.604151 L439.365938,622.240936 C438.901478,621.761111 438.880378,621.015175 439.29562,620.511206 L439.391276,620.407102 L447.829256,612.158737 C448.049297,611.94364 448.402047,611.947648 448.617144,612.16769 Z M446.514534,621 L453.485466,621 C453.769635,621 454,621.223858 454,621.5 C454,621.74546 453.817984,621.949608 453.577954,621.991944 L453.485466,622 L446.514534,622 C446.230365,622 446,621.776142 446,621.5 C446,621.25454 446.182016,621.050392 446.422046,621.008056 L446.514534,621 L453.485466,621 Z" id="Combined-Shape"></path>
        </g>
    </g>
</svg>