<?xml version="1.0"?>
<svg xmlns="http://www.w3.org/2000/svg" xmlns:xlink="http://www.w3.org/1999/xlink" version="1.1" id="Capa_1" x="0px" y="0px" viewBox="0 0 426.667 426.667" style="enable-background:new 0 0 426.667 426.667;" xml:space="preserve" width="512px" height="512px" class=""><g><g>
	<g>
		<path d="M213.333,0C95.467,0,0,95.467,0,213.333s95.467,213.333,213.333,213.333S426.667,331.2,426.667,213.333S331.2,0,213.333,0    z M192,382.507c-84.16-10.453-149.333-82.133-149.333-169.173c0-13.12,1.6-25.92,4.48-38.187l102.187,102.187v21.333    c0,23.573,19.093,42.667,42.667,42.667V382.507z M339.093,328.427c-5.44-17.28-21.44-29.76-40.427-29.76h-21.333v-64    c0-11.733-9.6-21.333-21.333-21.333H128v-42.667h42.667c11.733,0,21.333-9.6,21.333-21.333v-42.667h42.667    c23.573,0,42.667-19.093,42.667-42.667v-8.853C339.84,80.427,384,141.653,384,213.333    C384,257.707,366.933,298.027,339.093,328.427z" data-original="#000000" class="active-path" fill="#000000"/>
	</g>
</g></g> </svg>
